<svg width="32" height="32" viewBox="0 0 32 32" fill="none" xmlns="http://www.w3.org/2000/svg">
<path d="M7.04949 14.93C7.04949 15.05 6.87283 15.3267 6.51949 15.76C6.16616 16.1933 5.63616 16.78 4.92949 17.52H7.03949C7.11283 17.52 7.17283 17.62 7.21949 17.82C7.27283 18.0133 7.29949 18.29 7.29949 18.65C7.29949 19.0033 7.25616 19.3167 7.16949 19.59C7.08949 19.8633 6.97949 20 6.83949 20H1.96949C1.77616 20 1.63616 19.8067 1.54949 19.42C1.46949 19.0333 1.42949 18.6133 1.42949 18.16C1.42949 18.06 1.61616 17.7867 1.98949 17.34C2.36283 16.8933 2.92616 16.27 3.67949 15.47H1.73949C1.55949 15.47 1.46949 15.18 1.46949 14.6C1.46949 14.1933 1.51283 13.81 1.59949 13.45C1.68616 13.0833 1.79616 12.9 1.92949 12.9H6.53949C6.87949 12.9 7.04949 13.5767 7.04949 14.93ZM10.549 12.66V19.76C10.549 19.8333 10.359 19.8933 9.97902 19.94C9.59902 19.98 9.20569 20 8.79902 20C8.39902 20 8.13902 19.9833 8.01902 19.95C7.90569 19.91 7.84902 19.8467 7.84902 19.76V12.84C7.84902 12.6933 8.03569 12.55 8.40902 12.41C8.78902 12.27 9.19569 12.2 9.62902 12.2C10.2424 12.2 10.549 12.3533 10.549 12.66ZM11.2475 21.21V14.85C11.2475 14.71 11.4341 14.5667 11.8075 14.42C12.1808 14.2733 12.5841 14.2 13.0175 14.2C13.2175 14.2 13.3741 14.2233 13.4875 14.27C13.6008 14.3167 13.6708 14.3633 13.6975 14.41C13.7241 14.4567 13.7741 14.6567 13.8475 15.01H13.9275C13.9408 14.95 14.0008 14.8567 14.1075 14.73C14.2141 14.6033 14.3208 14.5 14.4275 14.42C14.5408 14.34 14.7008 14.27 14.9075 14.21C15.1141 14.1433 15.3541 14.11 15.6275 14.11C15.9075 14.11 16.1608 14.1733 16.3875 14.3C16.6141 14.42 16.7808 14.5633 16.8875 14.73C17.0008 14.89 17.0875 15.0967 17.1475 15.35C17.2141 15.5967 17.2508 15.7967 17.2575 15.95C17.2708 16.0967 17.2775 16.3133 17.2775 16.6C17.2775 16.88 17.2675 17.16 17.2475 17.44C17.2275 17.7133 17.1908 17.9933 17.1375 18.28C17.0841 18.5667 17.0075 18.8133 16.9075 19.02C16.8075 19.2267 16.6808 19.4133 16.5275 19.58C16.2208 19.9133 15.7708 20.08 15.1775 20.08C14.9641 20.08 14.7741 20.05 14.6075 19.99C14.4475 19.9233 14.3275 19.8467 14.2475 19.76C14.0808 19.58 13.9841 19.42 13.9575 19.28L13.9475 19.18H13.8675L14.0075 20.08V21.21C14.0075 21.2833 13.8141 21.34 13.4275 21.38C13.0475 21.4267 12.6541 21.45 12.2475 21.45C11.8475 21.45 11.5808 21.43 11.4475 21.39C11.3141 21.3567 11.2475 21.2967 11.2475 21.21ZM14.5675 17.07C14.5675 16.5033 14.5375 16.1067 14.4775 15.88C14.4175 15.6533 14.3275 15.54 14.2075 15.54C14.0875 15.54 14.0008 15.6067 13.9475 15.74V18.36C13.9475 18.5333 14.0375 18.62 14.2175 18.62C14.4508 18.62 14.5675 18.1033 14.5675 17.07ZM17.8783 21.21V14.85C17.8783 14.71 18.065 14.5667 18.4383 14.42C18.8117 14.2733 19.215 14.2 19.6483 14.2C19.8483 14.2 20.005 14.2233 20.1183 14.27C20.2317 14.3167 20.3017 14.3633 20.3283 14.41C20.355 14.4567 20.405 14.6567 20.4783 15.01H20.5583C20.5717 14.95 20.6317 14.8567 20.7383 14.73C20.845 14.6033 20.9517 14.5 21.0583 14.42C21.1717 14.34 21.3317 14.27 21.5383 14.21C21.745 14.1433 21.985 14.11 22.2583 14.11C22.5383 14.11 22.7917 14.1733 23.0183 14.3C23.245 14.42 23.4117 14.5633 23.5183 14.73C23.6317 14.89 23.7183 15.0967 23.7783 15.35C23.845 15.5967 23.8817 15.7967 23.8883 15.95C23.9017 16.0967 23.9083 16.3133 23.9083 16.6C23.9083 16.88 23.8983 17.16 23.8783 17.44C23.8583 17.7133 23.8217 17.9933 23.7683 18.28C23.715 18.5667 23.6383 18.8133 23.5383 19.02C23.4383 19.2267 23.3117 19.4133 23.1583 19.58C22.8517 19.9133 22.4017 20.08 21.8083 20.08C21.595 20.08 21.405 20.05 21.2383 19.99C21.0783 19.9233 20.9583 19.8467 20.8783 19.76C20.7117 19.58 20.615 19.42 20.5883 19.28L20.5783 19.18H20.4983L20.6383 20.08V21.21C20.6383 21.2833 20.445 21.34 20.0583 21.38C19.6783 21.4267 19.285 21.45 18.8783 21.45C18.4783 21.45 18.2117 21.43 18.0783 21.39C17.945 21.3567 17.8783 21.2967 17.8783 21.21ZM21.1983 17.07C21.1983 16.5033 21.1683 16.1067 21.1083 15.88C21.0483 15.6533 20.9583 15.54 20.8383 15.54C20.7183 15.54 20.6317 15.6067 20.5783 15.74V18.36C20.5783 18.5333 20.6683 18.62 20.8483 18.62C21.0817 18.62 21.1983 18.1033 21.1983 17.07ZM27.8792 19.35V18.76H27.7992C27.7658 18.7933 27.7158 18.8367 27.6492 18.89C27.5825 18.9433 27.4258 19.0133 27.1792 19.1C26.9325 19.1867 26.6558 19.23 26.3492 19.23C26.0492 19.23 25.7825 19.1833 25.5492 19.09C25.3225 18.99 25.1425 18.86 25.0092 18.7C24.8758 18.5333 24.7725 18.3133 24.6992 18.04C24.5725 17.6067 24.5092 16.9933 24.5092 16.2V14.82C24.5092 14.68 24.7058 14.5433 25.0992 14.41C25.4925 14.27 25.9058 14.2 26.3392 14.2C26.9192 14.2 27.2092 14.35 27.2092 14.65V15.91C27.2092 17.2433 27.3158 17.91 27.5292 17.91C27.6558 17.91 27.7192 17.82 27.7192 17.64V14.82C27.7192 14.68 27.9292 14.5433 28.3492 14.41C28.7692 14.27 29.2192 14.2 29.6992 14.2C30.1792 14.2 30.4192 14.33 30.4192 14.59V19.32C30.4192 20.8067 29.4125 21.55 27.3992 21.55C26.3392 21.55 25.6192 21.4467 25.2392 21.24C25.0725 21.1467 24.9892 21.05 24.9892 20.95C24.9892 20.79 25.0558 20.52 25.1892 20.14C25.3225 19.7667 25.4458 19.58 25.5592 19.58C25.5858 19.58 25.6792 19.6 25.8392 19.64C26.3325 19.7733 26.7425 19.84 27.0692 19.84C27.4025 19.84 27.6192 19.8033 27.7192 19.73C27.8258 19.6567 27.8792 19.53 27.8792 19.35Z" fill="white"/>
<path d="M7.12665 10.3919C7.00264 9.55657 7.64024 8.80241 8.57176 8.6942C9.69458 8.56377 10.376 9.16472 10.5 10C10.624 10.8353 9.74451 11.5766 8.81299 11.6848C7.88146 11.793 7.25066 11.2271 7.12665 10.3919Z" fill="url(#paint0_linear_183_286)"/>
<defs>
<linearGradient id="paint0_linear_183_286" x1="12.6213" y1="16.3055" x2="10.2864" y2="14.2828" gradientUnits="userSpaceOnUse">
<stop stop-color="#7F56D9" stop-opacity="0.3"/>
<stop offset="0.2225" stop-color="#7F56D9" stop-opacity="0.5"/>
<stop offset="0.59" stop-color="#7F56D9" stop-opacity="0.7"/>
<stop offset="1" stop-color="#7F56D9"/>
</linearGradient>
</defs>
</svg>
